<svg width="22" height="22" viewBox="0 0 22 22" fill="none" xmlns="http://www.w3.org/2000/svg">
<path d="M6.46777 5.96484C7.2334 5.99219 8.03092 6.00586 8.86035 6.00586C9.25228 6.00586 9.62598 5.99674 9.98145 5.97852C10.3369 5.96029 10.5192 5.95117 10.5283 5.95117C10.7744 5.95117 11 5.95801 11.2051 5.97168C11.4147 5.98079 11.6494 6.00358 11.9092 6.04004C12.1735 6.0765 12.4082 6.12663 12.6133 6.19043C12.8184 6.25423 13.0234 6.3431 13.2285 6.45703C13.4382 6.57096 13.6113 6.7054 13.748 6.86035C13.8893 7.0153 14.0033 7.20671 14.0898 7.43457C14.1764 7.66243 14.2197 7.91764 14.2197 8.2002C14.2197 9.03418 13.7207 9.66081 12.7227 10.0801V10.1348C13.4701 10.2715 14.0944 10.5814 14.5957 11.0645C15.1016 11.5475 15.3545 12.165 15.3545 12.917C15.3545 13.318 15.2816 13.6803 15.1357 14.0039C14.9945 14.3229 14.8122 14.5872 14.5889 14.7969C14.3656 15.0065 14.0853 15.1888 13.748 15.3438C13.4108 15.4987 13.0827 15.6172 12.7637 15.6992C12.4447 15.7812 12.0778 15.8473 11.6631 15.8975C11.2529 15.943 10.902 15.9727 10.6104 15.9863C10.3187 15.9954 9.99284 16 9.63281 16C8.39779 16 7.33822 16.0137 6.4541 16.041C6.43587 15.9863 6.42676 15.9408 6.42676 15.9043C6.42676 15.8724 6.43587 15.8109 6.4541 15.7197C6.59082 15.7061 6.7002 15.6947 6.78223 15.6855C6.86426 15.6764 6.97591 15.6605 7.11719 15.6377C7.26302 15.6149 7.37923 15.5898 7.46582 15.5625C7.55697 15.5306 7.65039 15.4919 7.74609 15.4463C7.8418 15.4007 7.91243 15.346 7.95801 15.2822C8.00814 15.2184 8.0332 15.1455 8.0332 15.0635C8.08789 13.637 8.11523 12.1992 8.11523 10.75C8.11523 9.27344 8.09245 7.99967 8.04688 6.92871C8.04232 6.81022 7.98991 6.70996 7.88965 6.62793C7.79395 6.5459 7.64811 6.4821 7.45215 6.43652C7.25618 6.39095 7.09896 6.36133 6.98047 6.34766C6.86198 6.32943 6.69108 6.30892 6.46777 6.28613C6.44954 6.2041 6.44043 6.14714 6.44043 6.11523C6.44043 6.08789 6.44954 6.03776 6.46777 5.96484ZM9.55762 10.75V11.2559L9.63281 15.5352C9.93815 15.5352 10.2093 15.5306 10.4463 15.5215C10.6833 15.5078 10.943 15.4805 11.2256 15.4395C11.5081 15.3939 11.7542 15.3346 11.9639 15.2617C12.1735 15.1888 12.3831 15.0885 12.5928 14.9609C12.8024 14.8288 12.9733 14.6738 13.1055 14.4961C13.2376 14.3184 13.3447 14.0996 13.4268 13.8398C13.5088 13.5755 13.5498 13.2793 13.5498 12.9512C13.5498 12.6322 13.4974 12.3473 13.3926 12.0967C13.2878 11.8415 13.1396 11.6296 12.9482 11.4609C12.7614 11.2878 12.5312 11.1442 12.2578 11.0303C11.9889 10.9163 11.695 10.8343 11.376 10.7842C11.0615 10.734 10.7174 10.709 10.3438 10.709C10.084 10.709 9.82194 10.7227 9.55762 10.75ZM9.64648 6.43652L9.55762 10.333C11.417 10.333 12.3467 9.62207 12.3467 8.2002C12.3467 7.5804 12.153 7.12467 11.7656 6.83301C11.3828 6.54134 10.8724 6.39551 10.2344 6.39551C10.0931 6.39551 9.89714 6.40918 9.64648 6.43652Z" fill="#262730"/>
<path d="M13.5301 2.62751C6.30095 -1.2639 15.7217 23.3589 8.94565 18.2017" stroke="#262730"/>
<path d="M14.382 2.1626C15.0563 2.5645 15.0399 3.49513 14.6885 4.03077C14.337 4.56641 13.5055 4.67483 12.8312 4.27294C12.157 3.87104 11.2849 2.74718 11.6364 2.21154C11.9878 1.6759 13.7078 1.76071 14.382 2.1626Z" fill="#262730"/>
<path d="M7.39925 17.7465C7.12289 17.0363 7.48727 16.5482 8.10875 16.3285C8.41512 16.2196 9.55814 16.3282 9.55818 17.71C9.5 18.5 10.1215 18.7803 9.5 19C8.87852 19.2197 7.67561 18.4567 7.39925 17.7465Z" fill="#262730"/>
</svg>
