<svg width="80" height="48" viewBox="0 0 80 48" fill="none" xmlns="http://www.w3.org/2000/svg">
<rect width="80" height="48" fill="white"/>
<g clip-path="url(#clip0_54_107)">
<path d="M41.376 22.0946C41.3469 24.3145 43.4205 25.5533 44.9826 26.2899C46.5875 27.0455 47.1266 27.5302 47.1202 28.206C47.1083 29.2402 45.8401 29.6967 44.6533 29.7144C42.5828 29.7455 41.379 29.1735 40.4219 28.741L39.676 32.1181C40.6363 32.5463 42.4143 32.9196 44.2581 32.936C48.5861 32.936 51.4176 30.8688 51.4329 27.6636C51.4499 23.5957 45.6181 23.3705 45.658 21.5523C45.6717 21.001 46.2154 20.4127 47.4067 20.2631C47.9964 20.1875 49.6242 20.1297 51.4698 20.952L52.1941 17.6846C51.2016 17.3349 49.926 17 48.3379 17C44.2642 17 41.3991 19.0955 41.376 22.0946ZM59.1544 17.2815C58.3641 17.2815 57.6982 17.7276 57.4009 18.4121L51.2186 32.696H55.5434L56.404 30.3945H61.6889L62.1881 32.696H66L62.6736 17.2815H59.1544ZM59.7595 21.4455L61.0076 27.2339H57.5894L59.7595 21.4455ZM36.1323 17.2817L32.7233 32.6958H36.8445L40.252 17.2813H36.1323M30.0356 17.2813L25.7461 27.7732L24.0109 18.8524C23.8073 17.8565 23.0032 17.2815 22.1103 17.2815H15.0982L15 17.7291C16.4396 18.0314 18.0751 18.5189 19.0661 19.0405C19.6725 19.3592 19.8454 19.6377 20.0446 20.3949L23.3311 32.696H27.6862L34.3633 17.2815L30.0356 17.2813Z" fill="url(#paint0_linear_54_107)"/>
</g>
<defs>
<linearGradient id="paint0_linear_54_107" x1="2359.67" y1="64.9037" x2="2404.31" y2="-1571.83" gradientUnits="userSpaceOnUse">
<stop stop-color="#222357"/>
<stop offset="1" stop-color="#254AA5"/>
</linearGradient>
<clipPath id="clip0_54_107">
<rect width="51" height="16" fill="white" transform="translate(15 17)"/>
</clipPath>
</defs>
</svg>
