<svg width="80" height="48" viewBox="0 0 80 48" fill="none" xmlns="http://www.w3.org/2000/svg">
<rect width="80" height="48" fill="white"/>
<g clip-path="url(#clip0_54_106)">
<path d="M21.8289 32.9823C26.1711 33.0048 30.1346 29.2195 30.1346 24.6148C30.1347 19.5796 26.1711 16.0993 21.8289 16.1008H18.092C13.6977 16.0992 10.081 19.5804 10.081 24.6147C10.081 29.2205 13.6977 33.0047 18.092 32.9822H21.8289" fill="#006095"/>
<path d="M19.7588 29.0986V19.9551C21.4883 20.6601 22.7161 22.4395 22.7191 24.5266C22.7161 26.6139 21.4884 28.3922 19.7587 29.0986M13.5013 24.5266C13.5051 22.4408 14.7311 20.6624 16.4596 19.9554V29.0967C14.7311 28.3903 13.5051 26.6129 13.5014 24.5267M18.1094 16.7986C14.0943 16.7999 10.8405 20.2585 10.8395 24.5266C10.8405 28.7942 14.0943 32.2521 18.1094 32.2534C22.1261 32.2521 25.3804 28.7942 25.3809 24.5266C25.3804 20.2585 22.126 16.8 18.1094 16.7986Z" fill="white"/>
<path d="M32.6811 19.7325C32.6811 18.9341 32.2889 18.9865 31.9133 18.978V18.7473C32.2389 18.7641 32.5728 18.7641 32.8992 18.7641C33.2498 18.7641 33.7261 18.7473 34.3447 18.7473C36.5079 18.7473 37.6856 20.2827 37.6856 21.8551C37.6856 22.7341 37.2016 24.9447 34.244 24.9447C33.8183 24.9447 33.4251 24.9271 33.0327 24.9271C32.6571 24.9271 32.2889 24.9355 31.9133 24.9447V24.7138C32.4141 24.6602 32.6571 24.6426 32.6811 24.0388V19.7325ZM33.4999 23.8969C33.4999 24.5804 33.96 24.6602 34.369 24.6602C36.1739 24.6602 36.7666 23.2131 36.7666 21.8901C36.7666 20.2303 35.764 19.0318 34.1518 19.0318C33.8087 19.0318 33.6511 19.0578 33.4999 19.0673V23.8969ZM37.9787 24.7139H38.1372C38.3708 24.7139 38.5381 24.7139 38.5381 24.4202V22.0147C38.5381 21.6243 38.413 21.57 38.1035 21.3936V21.2512C38.4962 21.1262 38.9644 20.9584 38.9974 20.9319C39.0561 20.8964 39.106 20.8869 39.1479 20.8869C39.1892 20.8869 39.2065 20.9403 39.2065 21.0118V24.4202C39.2065 24.7139 39.3903 24.7139 39.6244 24.7139H39.7662V24.9448C39.4818 24.9448 39.1892 24.927 38.8893 24.927C38.5884 24.927 38.2874 24.9358 37.9787 24.9448V24.7139ZM38.8725 19.52C38.6549 19.52 38.4632 19.3069 38.4632 19.076C38.4632 18.8537 38.664 18.6489 38.8725 18.6489C39.0891 18.6489 39.2818 18.8362 39.2818 19.076C39.2818 19.316 39.0977 19.52 38.8725 19.52ZM40.5599 22.0676C40.5599 21.7394 40.4675 21.6508 40.0757 21.4822V21.3135C40.4346 21.1894 40.7767 21.0735 41.1783 20.8869C41.203 20.8869 41.2276 20.905 41.2276 20.9757V21.5529C41.7045 21.1894 42.114 20.8869 42.6744 20.8869C43.384 20.8869 43.6345 21.4374 43.6345 22.1301V24.4201C43.6345 24.7138 43.8179 24.7138 44.0522 24.7138H44.2026V24.9447C43.9096 24.9447 43.6172 24.9269 43.3172 24.9269C43.0161 24.9269 42.7152 24.9356 42.4146 24.9447V24.7138H42.5647C42.7992 24.7138 42.9655 24.7138 42.9655 24.4201V22.1213C42.9655 21.6147 42.6744 21.3667 42.1975 21.3667C41.9303 21.3667 41.5041 21.5972 41.2276 21.7927V24.4201C41.2276 24.7138 41.4125 24.7138 41.6465 24.7138H41.7966V24.9447C41.5042 24.9447 41.2114 24.9269 40.9107 24.9269C40.6103 24.9269 40.309 24.9356 40.0086 24.9447V24.7138H40.1594C40.3932 24.7138 40.5599 24.7138 40.5599 24.4201V22.0676ZM44.8378 22.4945C44.8206 22.5744 44.8206 22.7072 44.8378 23.0093C44.887 23.8526 45.398 24.5448 46.0653 24.5448C46.5255 24.5448 46.8852 24.2784 47.1935 23.9503L47.3103 24.0746C46.926 24.6163 46.4496 25.0779 45.7653 25.0779C44.4364 25.0779 44.1694 23.7102 44.1694 23.1424C44.1694 21.4021 45.2717 20.8869 45.8561 20.8869C46.5335 20.8869 47.2609 21.3395 47.2682 22.2806C47.2682 22.3346 47.2682 22.3872 47.2609 22.4411L47.185 22.4944H44.8379L44.8378 22.4945ZM46.3168 22.2101C46.5255 22.2101 46.5497 22.0945 46.5497 21.988C46.5497 21.5354 46.2912 21.1714 45.823 21.1714C45.3136 21.1714 44.9628 21.57 44.8627 22.2101H46.3168ZM47.4609 24.7139H47.6865C47.9196 24.7139 48.0869 24.7139 48.0869 24.4202V21.926C48.0869 21.6508 47.7782 21.5973 47.6526 21.5264V21.3936C48.2625 21.118 48.5968 20.8869 48.673 20.8869C48.7221 20.8869 48.7469 20.9135 48.7469 21.0028V21.8017H48.7648C48.9728 21.4553 49.3244 20.887 49.8337 20.887C50.0427 20.887 50.3097 21.0376 50.3097 21.3574C50.3097 21.5972 50.1513 21.8109 49.9176 21.8109C49.6575 21.8109 49.6575 21.5973 49.3655 21.5973C49.2233 21.5973 48.7557 21.8016 48.7557 22.3346V24.4203C48.7557 24.7139 48.9224 24.7139 49.1565 24.7139H49.6241V24.9448C49.1645 24.9358 48.8148 24.927 48.4551 24.927C48.1127 24.927 47.7617 24.9358 47.4609 24.9448V24.7139ZM50.6772 23.7104C50.786 24.2961 51.1199 24.7937 51.7302 24.7937C52.2222 24.7937 52.4059 24.474 52.4059 24.1635C52.4059 23.1156 50.5855 23.4527 50.5855 22.0237C50.5855 21.5261 50.9618 20.887 51.8803 20.887C52.1473 20.887 52.5065 20.9672 52.8321 21.1449L52.8911 22.0497H52.6988C52.6154 21.4909 52.3231 21.1713 51.7882 21.1713C51.4537 21.1713 51.1366 21.3754 51.1366 21.757C51.1366 22.7966 53.0748 22.4764 53.0748 23.8701C53.0748 24.456 52.632 25.078 51.6376 25.078C51.3035 25.078 50.9108 24.9535 50.6187 24.776L50.5266 23.755L50.6772 23.7104ZM60.6184 20.354H60.4101C60.251 19.316 59.5575 18.8982 58.6223 18.8982C57.6611 18.8982 56.2656 19.5817 56.2656 21.7124C56.2656 23.5068 57.4695 24.7937 58.7557 24.7937C59.5824 24.7937 60.268 24.1902 60.4353 23.2573L60.627 23.3106L60.4353 24.6068C60.0843 24.8385 59.1402 25.0779 58.5884 25.0779C56.634 25.0779 55.3978 23.7371 55.3978 21.7394C55.3978 19.9191 56.9264 18.6137 58.5637 18.6137C59.2401 18.6137 59.892 18.8452 60.535 19.0851L60.6184 20.354ZM60.9199 24.7139H61.0777C61.3124 24.7139 61.4796 24.7139 61.4796 24.4202V19.4759C61.4796 18.8982 61.3542 18.8805 61.0368 18.7829V18.6408C61.3707 18.5256 61.7217 18.3658 61.897 18.2588C61.9883 18.2059 62.0556 18.1609 62.0803 18.1609C62.1312 18.1609 62.148 18.2147 62.148 18.2859V24.4201C62.148 24.7138 62.3316 24.7138 62.5658 24.7138H62.7068V24.9447C62.4238 24.9447 62.1312 24.9269 61.8303 24.9269C61.5299 24.9269 61.229 24.9356 60.9199 24.9447V24.7139ZM66.2838 24.456C66.2838 24.6163 66.3753 24.6247 66.5172 24.6247C66.6176 24.6247 66.7424 24.6163 66.8515 24.6163V24.8032C66.4917 24.8385 65.807 25.0248 65.6482 25.078L65.606 25.0513V24.3324C65.1056 24.7673 64.7207 25.078 64.1269 25.078C63.6762 25.078 63.2083 24.7673 63.2083 24.0218V21.7484C63.2083 21.5175 63.1752 21.2955 62.7078 21.2512V21.0825C63.0089 21.0736 63.6762 21.0206 63.7852 21.0206C63.8778 21.0206 63.8778 21.0824 63.8778 21.2779V23.568C63.8778 23.8348 63.8778 24.5982 64.604 24.5982C64.8881 24.5982 65.264 24.3674 65.6143 24.0574V21.668C65.6143 21.4909 65.2137 21.3936 64.9136 21.3046V21.1448C65.6646 21.0912 66.1332 21.0204 66.2162 21.0204C66.2838 21.0204 66.2838 21.0824 66.2838 21.1805V24.456ZM67.9461 21.5264C68.2796 21.2244 68.7311 20.887 69.191 20.887C70.16 20.887 70.7441 21.7843 70.7441 22.7517C70.7441 23.9146 69.9426 25.078 68.7472 25.078C68.1295 25.078 67.8038 24.8646 67.5862 24.7673L67.3361 24.971L67.1612 24.8737C67.235 24.3499 67.2778 23.8348 67.2778 23.2934V19.4759C67.2778 18.8982 67.1519 18.8805 66.8346 18.7829V18.6408C67.1695 18.5256 67.5195 18.3658 67.6953 18.2588C67.787 18.2059 67.8535 18.1609 67.8795 18.1609C67.9295 18.1609 67.9461 18.2147 67.9461 18.2859V21.5264ZM67.9461 23.941C67.9461 24.2785 68.2465 24.8473 68.8062 24.8473C69.7004 24.8473 70.076 23.9146 70.076 23.124C70.076 22.1654 69.3917 21.3668 68.7398 21.3668C68.43 21.3668 68.1715 21.5799 67.9461 21.7843V23.941ZM31.9039 30.1068H31.9678C32.1312 30.1068 32.3038 30.0833 32.3038 29.8318V27.3009C32.3038 27.049 32.1312 27.025 31.9678 27.025H31.9039V26.8801C32.0812 26.8801 32.354 26.8991 32.5773 26.8991C32.8043 26.8991 33.0767 26.8801 33.2903 26.8801V27.025H33.2266C33.0636 27.025 32.8905 27.049 32.8905 27.3009V29.8318C32.8905 30.0833 33.0636 30.1068 33.2264 30.1068H33.2903V30.2525C33.0723 30.2525 32.7989 30.2334 32.5725 30.2334C32.3495 30.2334 32.0812 30.2525 31.9039 30.2525V30.1068ZM36.4133 29.3001L36.4225 29.2907V27.4793C36.4225 27.083 36.1631 27.0251 36.027 27.0251H35.9269V26.88C36.1406 26.88 36.3498 26.8991 36.5632 26.8991C36.7496 26.8991 36.9366 26.88 37.1225 26.88V27.0249H37.0547C36.8632 27.0249 36.6496 27.0637 36.6496 27.6384V29.837C36.6496 30.0058 36.6542 30.1747 36.6765 30.3244H36.5038L34.1631 27.5511V29.5419C34.1631 29.9622 34.2397 30.1067 34.5901 30.1067H34.6672V30.2523C34.4719 30.2523 34.2768 30.2333 34.081 30.2333C33.8771 30.2333 33.6676 30.2523 33.4631 30.2523V30.1067H33.5267C33.8403 30.1067 33.9355 29.8801 33.9355 29.4941V27.4591C33.9355 27.189 33.7259 27.0249 33.5222 27.0249H33.4631V26.88C33.6356 26.88 33.8129 26.8991 33.9851 26.8991C34.1218 26.8991 34.2539 26.88 34.3902 26.88L36.4135 29.2999L36.4133 29.3001ZM37.8032 27.1215C37.4618 27.1215 37.449 27.2086 37.3806 27.5607H37.2445C37.2621 27.4258 37.2852 27.2907 37.299 27.1502C37.3174 27.0147 37.3262 26.88 37.3262 26.7401H37.4352C37.4719 26.8852 37.5853 26.8801 37.7088 26.8801H40.0537C40.1766 26.8801 40.2899 26.8753 40.2995 26.7302L40.4079 26.7496C40.3903 26.8801 40.3719 27.0101 40.3581 27.1409C40.3497 27.2715 40.3497 27.402 40.3497 27.5321L40.2131 27.5857C40.2038 27.4071 40.1809 27.1215 39.8766 27.1215H39.1312V29.6918C39.1312 30.0643 39.2905 30.1068 39.5083 30.1068H39.5945V30.2525C39.4175 30.2525 39.099 30.2334 38.8539 30.2334C38.5811 30.2334 38.2628 30.2525 38.0852 30.2525V30.1068H38.1715C38.4224 30.1068 38.5489 30.0831 38.5489 29.7019V27.1215H37.8032ZM40.5532 30.1068H40.6171C40.7807 30.1068 40.9536 30.0833 40.9536 29.8318V27.3009C40.9536 27.049 40.7807 27.025 40.6171 27.025H40.5532V26.8801C40.83 26.8801 41.3038 26.8991 41.6848 26.8991C42.0673 26.8991 42.5393 26.8801 42.8482 26.8801C42.8411 27.1266 42.8444 27.3732 42.8581 27.6194L42.7211 27.6581C42.6992 27.3443 42.6449 27.0931 42.1671 27.0931H41.536V28.3584H42.0762C42.3488 28.3584 42.4084 28.1947 42.4353 27.9332H42.5714C42.5624 28.1215 42.5579 28.3099 42.5578 28.4984C42.5578 28.6825 42.5625 28.8658 42.5714 29.0494L42.4353 29.0781C42.4084 28.7886 42.3946 28.6 42.0805 28.6H41.536V29.7256C41.536 30.0396 41.7985 30.0396 42.0896 30.0396C42.6355 30.0396 42.8759 30.0006 43.0125 29.4507L43.1397 29.4839C43.0803 29.7406 43.026 29.9959 42.9856 30.2525C42.6942 30.2525 42.1715 30.2334 41.7629 30.2334C41.3533 30.2334 40.8123 30.2525 40.5532 30.2525V30.1068ZM43.7532 27.3919C43.7532 27.0395 43.5714 27.025 43.4301 27.025H43.3483V26.88C43.4938 26.88 43.7755 26.8994 44.053 26.8994C44.3254 26.8994 44.5439 26.88 44.7846 26.88C45.3571 26.88 45.8668 27.0442 45.8668 27.7309C45.8668 28.1649 45.5942 28.4307 45.235 28.5813L46.0121 29.8169C46.1396 30.0213 46.2301 30.0787 46.4531 30.1067V30.2526C46.303 30.2526 46.1574 30.2336 46.0076 30.2336C45.8668 30.2336 45.7208 30.2526 45.5806 30.2526C45.2306 29.7647 44.9298 29.243 44.6346 28.6866H44.3352V29.7209C44.3352 30.0934 44.4985 30.1067 44.7072 30.1067H44.7894V30.2526C44.5297 30.2526 44.267 30.2336 44.0076 30.2336C43.7891 30.2336 43.5755 30.2526 43.3483 30.2526V30.1067H43.4301C43.599 30.1067 43.7532 30.0257 43.7532 29.8466V27.392V27.3919ZM44.3352 28.5124H44.5573C45.0123 28.5124 45.2571 28.3293 45.2571 27.7589C45.2571 27.3296 44.9983 27.0542 44.5933 27.0542C44.4568 27.0542 44.3985 27.069 44.3352 27.0732V28.5124ZM49.5393 29.3002L49.5475 29.2907V27.4793C49.5475 27.083 49.289 27.0251 49.1527 27.0251H49.053V26.88C49.2666 26.88 49.475 26.8991 49.6892 26.8991C49.8759 26.8991 50.0613 26.88 50.2491 26.88V27.0249H50.1804C49.9898 27.0249 49.7759 27.0637 49.7759 27.6384V29.837C49.7759 30.0058 49.7802 30.1747 49.8027 30.3244H49.6303L47.2895 27.5511V29.5419C47.2895 29.9622 47.3664 30.1067 47.7165 30.1067H47.7937V30.2523C47.5985 30.2523 47.4029 30.2333 47.2077 30.2333C47.0024 30.2333 46.7935 30.2523 46.5891 30.2523V30.1067H46.6523C46.9663 30.1067 47.0618 29.8801 47.0618 29.4941V27.4591C47.0618 27.189 46.8527 27.0249 46.6484 27.0249H46.5891V26.88C46.7613 26.88 46.9394 26.8991 47.112 26.8991C47.2473 26.8991 47.3796 26.88 47.5164 26.88L49.5394 29.2999L49.5393 29.3002ZM50.9801 29.5615C50.9338 29.7256 50.8792 29.8519 50.8792 29.9381C50.8792 30.0833 51.0703 30.1068 51.2199 30.1068H51.2707V30.2525C51.0872 30.2409 50.9034 30.2347 50.7196 30.2337C50.5561 30.2347 50.3926 30.241 50.2294 30.2525V30.1068H50.2569C50.434 30.1068 50.5845 29.9959 50.6516 29.7926L51.3798 27.5761C51.4382 27.3972 51.5208 27.1555 51.5481 26.9762C51.6929 26.9238 51.8751 26.8273 51.9615 26.7691C51.9754 26.764 51.9834 26.759 51.9978 26.759C52.0114 26.759 52.0197 26.759 52.0299 26.7739C52.0435 26.8125 52.0563 26.856 52.071 26.8945L52.9074 29.4214C52.9616 29.5902 53.0158 29.7688 53.0746 29.9145C53.1297 30.0497 53.2252 30.1068 53.3754 30.1068H53.4026V30.2525C53.1937 30.2407 52.9846 30.2345 52.7754 30.2337C52.5528 30.2337 52.3248 30.2419 52.093 30.2525V30.1068H52.1435C52.2475 30.1068 52.4254 30.088 52.4254 29.967C52.4254 29.9046 52.3844 29.7742 52.3336 29.6191L52.1568 29.0589H51.1251L50.9801 29.5615ZM51.6434 27.4212H51.6342L51.2113 28.7886H52.0608L51.6434 27.4212ZM53.6026 27.1215C53.2615 27.1215 53.2479 27.2086 53.1796 27.5607H53.043C53.0609 27.4258 53.0839 27.2907 53.098 27.1502C53.1161 27.0147 53.1246 26.88 53.1246 26.7401H53.2342C53.2703 26.8852 53.3844 26.8801 53.5067 26.8801H55.8527C55.9749 26.8801 56.0885 26.8753 56.0978 26.7302L56.2066 26.7496C56.1891 26.8801 56.1709 27.0101 56.1573 27.1409C56.1472 27.2715 56.1472 27.402 56.1472 27.5321L56.0113 27.5857C56.0029 27.4071 55.98 27.1215 55.6753 27.1215H54.9297V29.6918C54.9297 30.0643 55.0892 30.1068 55.3069 30.1068H55.3934V30.2525C55.2161 30.2525 54.8981 30.2334 54.6523 30.2334C54.3802 30.2334 54.0613 30.2525 53.8841 30.2525V30.1068H53.9704C54.2209 30.1068 54.3481 30.0831 54.3481 29.7019V27.1215H53.6026ZM56.3743 30.1068H56.4379C56.6021 30.1068 56.7739 30.0833 56.7739 29.8318V27.3009C56.7739 27.049 56.6021 27.025 56.4379 27.025H56.3743V26.8801C56.552 26.8801 56.8242 26.8991 57.0466 26.8991C57.2745 26.8991 57.5472 26.8801 57.7612 26.8801V27.025H57.6976C57.5336 27.025 57.3604 27.049 57.3604 27.3009V29.8318C57.3604 30.0833 57.5336 30.1068 57.6976 30.1068H57.7612V30.2525C57.5427 30.2525 57.2699 30.2334 57.0428 30.2334C56.8197 30.2334 56.5519 30.2525 56.3743 30.2525V30.1068ZM59.574 26.8079C60.5431 26.8079 61.3154 27.4459 61.3154 28.4749C61.3154 29.5862 60.5653 30.3248 59.5974 30.3248C58.6329 30.3248 57.897 29.6293 57.897 28.5905C57.897 27.586 58.6287 26.8079 59.574 26.8079ZM59.6427 30.1121C60.5248 30.1121 60.6782 29.2855 60.6782 28.5813C60.6782 27.8749 60.3202 27.02 59.5652 27.02C58.7696 27.02 58.5335 27.774 58.5335 28.4206C58.5335 29.2855 58.9061 30.1121 59.6427 30.1121ZM64.3785 29.3002L64.3879 29.2907V27.4793C64.3879 27.083 64.1281 27.0251 63.9917 27.0251H63.8931V26.88C64.1059 26.88 64.3154 26.8991 64.5281 26.8991C64.7154 26.8991 64.9017 26.88 65.0883 26.88V27.0249H65.0196C64.8291 27.0249 64.6151 27.0637 64.6151 27.6384V29.837C64.6151 30.0058 64.6194 30.1747 64.6425 30.3244H64.47L62.1284 27.5511V29.5419C62.1284 29.9622 62.2059 30.1067 62.5554 30.1067H62.6331V30.2523C62.4375 30.2523 62.2426 30.2333 62.0469 30.2333C61.8424 30.2333 61.6327 30.2523 61.428 30.2523V30.1067H61.4922C61.8063 30.1067 61.9009 29.8801 61.9009 29.4941V27.4591C61.9009 27.189 61.6928 27.0249 61.4874 27.0249H61.4279V26.88C61.601 26.88 61.7784 26.8991 61.9509 26.8991C62.0871 26.8991 62.2186 26.88 62.3554 26.88L64.3786 29.2999L64.3785 29.3002ZM65.8187 29.5615C65.774 29.7256 65.719 29.8519 65.719 29.9381C65.719 30.0833 65.9104 30.1068 66.0595 30.1068H66.1103V30.2525C65.927 30.241 65.7435 30.2347 65.5599 30.2337C65.3964 30.2347 65.2329 30.2409 65.0698 30.2525V30.1068H65.0955C65.2735 30.1068 65.424 29.9959 65.491 29.7926L66.2195 27.5761C66.2783 27.3972 66.3605 27.1555 66.387 26.9762C66.5327 26.9238 66.7143 26.8273 66.8015 26.7691C66.8145 26.764 66.8235 26.759 66.8372 26.759C66.8509 26.759 66.8596 26.759 66.8688 26.7739C66.8825 26.8125 66.8965 26.856 66.9102 26.8945L67.7461 29.4214C67.8007 29.5902 67.855 29.7688 67.9147 29.9145C67.9693 30.0497 68.0652 30.1068 68.2147 30.1068H68.2425V30.2525C68.0376 30.2419 67.8329 30.2337 67.6144 30.2337C67.3923 30.2337 67.1645 30.2419 66.9326 30.2525V30.1068H66.9828C67.0867 30.1068 67.2652 30.088 67.2652 29.967C67.2652 29.9046 67.2238 29.7742 67.1732 29.6191L66.9966 29.0589H65.9646L65.8187 29.5615ZM66.483 27.4212H66.4739L66.0505 28.7886H66.9013L66.4831 27.4212H66.483ZM69.3879 29.7787C69.3879 29.9723 69.5142 30.0299 69.6596 30.0497C69.8461 30.0643 70.0507 30.0643 70.2604 30.0398C70.451 30.0155 70.6144 29.8998 70.6962 29.7787C70.7689 29.6723 70.8095 29.5373 70.8372 29.4309H70.969C70.9191 29.7062 70.8552 29.9773 70.8004 30.2525C70.4014 30.2525 70 30.2337 69.601 30.2337C69.2004 30.2337 68.8009 30.2525 68.4008 30.2525V30.1068H68.4635C68.6279 30.1068 68.8055 30.0833 68.8055 29.7834V27.3007C68.8055 27.049 68.6278 27.025 68.4635 27.025H68.4008V26.8801C68.6412 26.8801 68.878 26.8993 69.1185 26.8993C69.3512 26.8993 69.578 26.8801 69.81 26.8801V27.025H69.6958C69.5235 27.025 69.3879 27.0304 69.3879 27.286V29.7787Z" fill="#262730"/>
</g>
<defs>
<clipPath id="clip0_54_106">
<rect width="61" height="17" fill="white" transform="translate(10 16)"/>
</clipPath>
</defs>
</svg>
