<svg width="80" height="48" viewBox="0 0 80 48" fill="none" xmlns="http://www.w3.org/2000/svg">
<rect width="80" height="48" fill="white"/>
<g clip-path="url(#clip0_54_105)">
<path d="M20.5936 18.6204C21.229 18.4109 21.8945 18.3045 22.5642 18.3055C25.57 18.3055 28.0796 20.4194 28.6544 23.2291L32.9154 22.3686C31.9375 17.5936 27.6755 14 22.5642 14C21.4259 13.999 20.2949 14.1804 19.2151 14.5373L20.5936 18.6204Z" fill="#FFCC00"/>
<path d="M15.5649 32.2929L18.4464 29.0675C17.1602 27.9392 16.3486 26.2927 16.3486 24.4582C16.3486 22.6251 17.159 20.9794 18.4445 19.8525L15.5628 16.6267C13.3783 18.5427 12 21.3415 12 24.4582C12 27.5769 13.3789 30.3765 15.5649 32.2929Z" fill="#00A0DE"/>
<path d="M28.6533 25.6929C28.076 28.5012 25.5691 30.611 22.5642 30.611C21.8746 30.611 21.2106 30.5009 20.5918 30.295L19.2114 34.3798C20.2642 34.7278 21.3916 34.9162 22.5642 34.9162C27.6706 34.9162 31.9321 31.3287 32.9137 26.558L28.6533 25.6929Z" fill="#EC3413"/>
<path d="M36.6415 29.2035C36.5019 28.9796 36.3121 28.6214 36.1979 28.3579C35.5232 26.8069 35.4909 25.2018 36.0608 23.6611C36.6873 21.9713 37.8841 20.6776 39.4305 20.0189C41.3746 19.1905 43.5248 19.3538 45.3881 20.4485C46.5718 21.1208 47.4109 22.1589 48.0481 23.6265L48.1072 23.7693L48.2175 24.0528C48.2352 24.0985 48.2527 24.143 48.2701 24.1856L36.6415 29.2035ZM40.5245 22.5087C39.1439 23.0962 38.4322 24.3785 38.5784 25.8819L44.4269 23.3899C43.4211 22.2195 42.1121 21.8317 40.5245 22.5087ZM47.4166 29.4274L45.1561 27.931L45.1529 27.9343L45.0317 27.8535C44.6829 28.4142 44.1382 28.8683 43.4512 29.1633C42.1439 29.7261 40.9325 29.5815 40.0625 28.826L39.9825 28.9465C39.9817 28.9451 39.9814 28.944 39.9799 28.944L38.4963 31.1418C38.8654 31.3957 39.2606 31.6101 39.6754 31.7813C41.3144 32.4554 42.9913 32.4241 44.6434 31.7128C45.8384 31.2001 46.7759 30.4183 47.4166 29.4273V29.4274ZM52.3346 16.7822V29.0006L54.2532 29.7705L53.163 32.2891L51.0452 31.4159C50.5697 31.2122 50.2463 30.9002 50.0013 30.5482C49.7671 30.1894 49.5919 29.6969 49.5919 29.0339V16.7822H52.3346ZM57.305 25.8879C57.3061 24.8475 57.7701 23.9144 58.5044 23.2803L56.5359 21.1072C55.2009 22.2755 54.36 23.9828 54.3585 25.8849C54.3564 27.7877 55.1959 29.4967 56.5296 30.6681L58.4958 28.4929C57.7651 27.8563 57.3041 26.926 57.305 25.8879ZM60.8024 29.3559C60.4148 29.3548 60.0416 29.2914 59.6935 29.1767L58.7534 31.944C59.4129 32.1629 60.1038 32.2747 60.7993 32.2751C63.9161 32.2781 66.5186 30.0886 67.1217 27.1779L64.2322 26.5937C63.9036 28.1714 62.4927 29.357 60.8024 29.3559ZM60.811 19.5073C60.1164 19.506 59.4261 19.616 58.767 19.8331L59.6989 22.603C60.0567 22.4857 60.4313 22.4259 60.8082 22.4258C62.5025 22.4274 63.9144 23.62 64.2353 25.2022L67.125 24.6218C66.5303 21.7069 63.9303 19.5092 60.811 19.5073Z" fill="#262730"/>
</g>
<defs>
<clipPath id="clip0_54_105">
<rect width="55.125" height="21" fill="white" transform="translate(12 14)"/>
</clipPath>
</defs>
</svg>
