<svg width="80" height="48" viewBox="0 0 80 48" fill="none" xmlns="http://www.w3.org/2000/svg">
<rect width="80" height="48" fill="white"/>
<g clip-path="url(#clip0_54_104)">
<path d="M26.6355 39.8411V37.7231C26.6355 36.911 26.1311 36.3817 25.2667 36.3817C24.8346 36.3817 24.3663 36.5229 24.0421 36.9818C23.7901 36.5935 23.43 36.3817 22.8898 36.3817C22.5295 36.3817 22.1695 36.4875 21.8813 36.8758V36.4523H21.1249V39.8411H21.8813V37.9701C21.8813 37.3701 22.2055 37.0876 22.7098 37.0876C23.2138 37.0876 23.4661 37.4054 23.4661 37.9701V39.8411H24.2224V37.9701C24.2224 37.3701 24.5824 37.0876 25.0506 37.0876C25.555 37.0876 25.807 37.4054 25.807 37.9701V39.8411H26.6355ZM37.8362 36.4523H36.6118V35.4286H35.8555V36.4523H35.1712V37.1228H35.8553V38.6762C35.8553 39.4529 36.1795 39.9116 37.0439 39.9116C37.3681 39.9116 37.7281 39.8058 37.9804 39.6646L37.7642 39.0292C37.5481 39.1703 37.2961 39.2057 37.1159 39.2057C36.7558 39.2057 36.6118 38.9939 36.6118 38.6408V37.1228H37.8362V36.4523ZM44.2471 36.3815C43.8149 36.3815 43.5269 36.5935 43.3467 36.8758V36.4523H42.5904V39.8411H43.3467V37.9349C43.3467 37.3701 43.5987 37.0524 44.0669 37.0524C44.211 37.0524 44.3911 37.0878 44.5352 37.123L44.7513 36.4171C44.6072 36.3817 44.3911 36.3817 44.2471 36.3817V36.3815ZM34.5589 36.7346C34.1986 36.4875 33.6944 36.3817 33.1542 36.3817C32.2899 36.3817 31.7137 36.8052 31.7137 37.4759C31.7137 38.0408 32.1458 38.3584 32.9022 38.4644L33.2623 38.4998C33.6585 38.5702 33.8746 38.6762 33.8746 38.8528C33.8746 39.0997 33.5865 39.2763 33.0821 39.2763C32.578 39.2763 32.1818 39.0997 31.9296 38.9233L31.5695 39.4881C31.9657 39.7705 32.506 39.9116 33.0461 39.9116C34.0545 39.9116 34.6309 39.4529 34.6309 38.8174C34.6309 38.2173 34.1627 37.8995 33.4423 37.7937L33.0821 37.7583C32.758 37.7229 32.506 37.6525 32.506 37.4407C32.506 37.1936 32.758 37.0524 33.1542 37.0524C33.5865 37.0524 34.0186 37.2288 34.2347 37.3348L34.5589 36.7346ZM54.6557 36.3817C54.2234 36.3817 53.9353 36.5935 53.7552 36.8758V36.4523H52.9988V39.8411H53.7552V37.9349C53.7552 37.3701 54.0073 37.0524 54.4754 37.0524C54.6196 37.0524 54.7998 37.0878 54.9438 37.123L55.1599 36.4171C55.0158 36.3817 54.7998 36.3817 54.6557 36.3817ZM45.0034 38.1467C45.0034 39.1703 45.7237 39.9116 46.8403 39.9116C47.3444 39.9116 47.7045 39.8058 48.0647 39.5235L47.7045 38.9233C47.4165 39.1351 47.1284 39.2409 46.8042 39.2409C46.1919 39.2409 45.7597 38.8174 45.7597 38.1467C45.7597 37.5113 46.1919 37.0876 46.8042 37.0524C47.1284 37.0524 47.4165 37.1582 47.7045 37.3701L48.0647 36.77C47.7045 36.4875 47.3444 36.3817 46.8403 36.3817C45.7237 36.3817 45.0034 37.123 45.0034 38.1467ZM51.9905 38.1467V36.4523H51.2342V36.8758C50.982 36.5582 50.6219 36.3817 50.1537 36.3817C49.1813 36.3817 48.4249 37.123 48.4249 38.1467C48.4249 39.1703 49.1813 39.9116 50.1537 39.9116C50.6578 39.9116 51.0181 39.7352 51.2342 39.4175V39.8411H51.9905V38.1467ZM49.2172 38.1467C49.2172 37.5465 49.6134 37.0524 50.2616 37.0524C50.8739 37.0524 51.3062 37.5113 51.3062 38.1467C51.3062 38.7468 50.8739 39.2409 50.2616 39.2409C49.6134 39.2056 49.2172 38.7468 49.2172 38.1467ZM40.1774 36.3817C39.1689 36.3817 38.4485 37.0876 38.4485 38.1467C38.4485 39.2057 39.1687 39.9116 40.2133 39.9116C40.7174 39.9116 41.2218 39.7705 41.618 39.4529L41.2577 38.9233C40.9696 39.1351 40.6095 39.2763 40.2494 39.2763C39.7811 39.2763 39.3129 39.0645 39.2048 38.4642H41.762V38.182C41.7981 37.0876 41.1499 36.3817 40.1774 36.3817ZM40.1774 37.017C40.6454 37.017 40.9698 37.2995 41.0416 37.8291H39.2409C39.3129 37.3701 39.6371 37.017 40.1774 37.017ZM58.9415 38.1467V35.1108H58.1852V36.8758C57.933 36.5582 57.5729 36.3817 57.1047 36.3817C56.1323 36.3817 55.3759 37.123 55.3759 38.1467C55.3759 39.1703 56.1323 39.9116 57.1047 39.9116C57.609 39.9116 57.9691 39.7352 58.1852 39.4175V39.8411H58.9415V38.1467ZM56.1684 38.1467C56.1684 37.5465 56.5644 37.0524 57.2128 37.0524C57.8251 37.0524 58.2572 37.5113 58.2572 38.1467C58.2572 38.7468 57.8251 39.2409 57.2128 39.2409C56.5644 39.2056 56.1684 38.7468 56.1684 38.1467ZM30.8852 38.1467V36.4523H30.1289V36.8758C29.8767 36.5582 29.5166 36.3817 29.0483 36.3817C28.0759 36.3817 27.3196 37.123 27.3196 38.1467C27.3196 39.1703 28.0759 39.9116 29.0483 39.9116C29.5527 39.9116 29.9128 39.7352 30.1289 39.4175V39.8411H30.8852V38.1467ZM28.0759 38.1467C28.0759 37.5465 28.4722 37.0524 29.1204 37.0524C29.7326 37.0524 30.1649 37.5113 30.1649 38.1467C30.1649 38.7468 29.7326 39.2409 29.1204 39.2409C28.4722 39.2056 28.0759 38.7468 28.0759 38.1467Z" fill="#262730"/>
<path d="M34.3067 10.718H45.6516V30.6981H34.3067V10.718Z" fill="#FF5F00"/>
<path d="M35.0271 20.7082C35.0271 16.6487 36.9719 13.048 39.9611 10.7181C37.7643 9.02368 34.9912 8 31.9659 8C24.7985 8 19 13.6833 19 20.7082C19 27.7329 24.7985 33.4164 31.9657 33.4164C34.991 33.4164 37.7642 32.3927 39.9611 30.6981C36.9719 28.4036 35.0271 24.7677 35.0271 20.7082Z" fill="#EB001B"/>
<path d="M60.9583 20.7082C60.9583 27.7329 55.1598 33.4164 47.9926 33.4164C44.9673 33.4164 42.1942 32.3927 39.9972 30.6981C43.0225 28.3684 44.9314 24.7677 44.9314 20.7082C44.9314 16.6487 42.9864 13.048 39.9972 10.7181C42.194 9.02368 44.9673 8 47.9926 8C55.1598 8 60.9583 13.7187 60.9583 20.7082Z" fill="#F79E1B"/>
</g>
<defs>
<clipPath id="clip0_54_104">
<rect width="42" height="32" fill="white" transform="translate(19 8)"/>
</clipPath>
</defs>
</svg>
