<svg width="137" height="87" viewBox="0 0 137 87" fill="none" xmlns="http://www.w3.org/2000/svg">
<path d="M15.0107 84V72.3636H21.9879V73.6136H16.4197V77.5455H21.4652V78.7955H16.4197V84H15.0107ZM24.4013 84V72.3636H28.3331C29.2422 72.3636 29.9884 72.5189 30.5717 72.8295C31.1551 73.1364 31.5869 73.5587 31.8672 74.0966C32.1475 74.6345 32.2876 75.2462 32.2876 75.9318C32.2876 76.6174 32.1475 77.2254 31.8672 77.7557C31.5869 78.286 31.157 78.7027 30.5774 79.0057C29.9979 79.3049 29.2573 79.4545 28.3558 79.4545H25.174V78.1818H28.3104C28.9316 78.1818 29.4316 78.0909 29.8104 77.9091C30.1929 77.7273 30.4695 77.4697 30.6399 77.1364C30.8142 76.7992 30.9013 76.3977 30.9013 75.9318C30.9013 75.4659 30.8142 75.0587 30.6399 74.7102C30.4657 74.3617 30.1873 74.0928 29.8047 73.9034C29.4221 73.7102 28.9164 73.6136 28.2876 73.6136H25.8104V84H24.4013ZM29.8786 78.7727L32.7422 84H31.1058L28.2876 78.7727H29.8786ZM34.6357 84V72.3636H41.6584V73.6136H36.0447V77.5455H41.2947V78.7955H36.0447V82.75H41.7493V84H34.6357ZM43.5618 73.6136V72.3636H52.2891V73.6136H48.63V84H47.2209V73.6136H43.5618ZM54.4638 84V72.3636H61.4865V73.6136H55.8729V77.5455H61.1229V78.7955H55.8729V82.75H61.5774V84H54.4638ZM76.4808 76C76.3558 75.6174 76.1911 75.2746 75.9865 74.9716C75.7857 74.6648 75.5452 74.4034 75.2649 74.1875C74.9884 73.9716 74.674 73.8068 74.3217 73.6932C73.9695 73.5795 73.5831 73.5227 73.1626 73.5227C72.4732 73.5227 71.8464 73.7008 71.282 74.0568C70.7176 74.4129 70.2687 74.9375 69.9354 75.6307C69.602 76.3239 69.4354 77.1742 69.4354 78.1818C69.4354 79.1894 69.6039 80.0398 69.9411 80.733C70.2782 81.4261 70.7346 81.9508 71.3104 82.3068C71.8861 82.6629 72.5339 82.8409 73.2536 82.8409C73.9202 82.8409 74.5073 82.6989 75.0149 82.4148C75.5263 82.1269 75.924 81.7216 76.2081 81.1989C76.496 80.6723 76.6399 80.053 76.6399 79.3409L77.0717 79.4318H73.5717V78.1818H78.0036V79.4318C78.0036 80.3902 77.799 81.2235 77.3899 81.9318C76.9846 82.6402 76.424 83.1894 75.7081 83.5795C74.996 83.9659 74.1778 84.1591 73.2536 84.1591C72.2232 84.1591 71.3179 83.9167 70.5376 83.4318C69.7611 82.947 69.1551 82.2576 68.7195 81.3636C68.2876 80.4697 68.0717 79.4091 68.0717 78.1818C68.0717 77.2614 68.1948 76.4337 68.4411 75.6989C68.6911 74.9602 69.0433 74.3314 69.4979 73.8125C69.9524 73.2936 70.4903 72.8958 71.1115 72.6193C71.7327 72.3428 72.4164 72.2045 73.1626 72.2045C73.7763 72.2045 74.3482 72.2973 74.8786 72.483C75.4126 72.6648 75.888 72.9242 76.3047 73.2614C76.7251 73.5947 77.0755 73.9943 77.3558 74.4602C77.6361 74.9223 77.8293 75.4356 77.9354 76H76.4808ZM80.4169 84V72.3636H84.3487C85.2578 72.3636 86.004 72.5189 86.5874 72.8295C87.1707 73.1364 87.6025 73.5587 87.8828 74.0966C88.1631 74.6345 88.3033 75.2462 88.3033 75.9318C88.3033 76.6174 88.1631 77.2254 87.8828 77.7557C87.6025 78.286 87.1726 78.7027 86.593 79.0057C86.0135 79.3049 85.273 79.4545 84.3714 79.4545H81.1896V78.1818H84.326C84.9472 78.1818 85.4472 78.0909 85.826 77.9091C86.2086 77.7273 86.4851 77.4697 86.6555 77.1364C86.8298 76.7992 86.9169 76.3977 86.9169 75.9318C86.9169 75.4659 86.8298 75.0587 86.6555 74.7102C86.4813 74.3617 86.2029 74.0928 85.8203 73.9034C85.4377 73.7102 84.9321 73.6136 84.3033 73.6136H81.826V84H80.4169ZM85.8942 78.7727L88.7578 84H87.1214L84.3033 78.7727H85.8942ZM91.1286 84H89.6513L93.924 72.3636H95.3786L99.6513 84H98.174L94.6967 74.2045H94.6058L91.1286 84ZM91.674 79.4545H97.6286V80.7045H91.674V79.4545ZM94.0376 71.1818L95.424 68.5455H96.9922L95.2195 71.1818H94.0376ZM99.468 73.6136V72.3636H108.195V73.6136H104.536V84H103.127V73.6136H99.468ZM111.779 72.3636V84H110.37V72.3636H111.779ZM120.968 75.2727C120.9 74.697 120.623 74.25 120.138 73.9318C119.654 73.6136 119.059 73.4545 118.354 73.4545C117.839 73.4545 117.388 73.5379 117.002 73.7045C116.62 73.8712 116.32 74.1004 116.104 74.392C115.892 74.6837 115.786 75.0152 115.786 75.3864C115.786 75.697 115.86 75.964 116.008 76.1875C116.159 76.4072 116.353 76.5909 116.587 76.7386C116.822 76.8826 117.068 77.0019 117.326 77.0966C117.584 77.1875 117.82 77.2614 118.036 77.3182L119.218 77.6364C119.521 77.7159 119.858 77.8258 120.229 77.9659C120.604 78.1061 120.962 78.2973 121.303 78.5398C121.648 78.7784 121.932 79.0852 122.156 79.4602C122.379 79.8352 122.491 80.2955 122.491 80.8409C122.491 81.4697 122.326 82.0379 121.996 82.5455C121.671 83.053 121.193 83.4564 120.565 83.7557C119.94 84.0549 119.18 84.2045 118.286 84.2045C117.453 84.2045 116.731 84.0701 116.121 83.8011C115.515 83.5322 115.038 83.1572 114.69 82.6761C114.345 82.1951 114.15 81.6364 114.104 81H115.559C115.597 81.4394 115.745 81.803 116.002 82.0909C116.263 82.375 116.593 82.5871 116.991 82.7273C117.392 82.8636 117.824 82.9318 118.286 82.9318C118.824 82.9318 119.307 82.8447 119.735 82.6705C120.163 82.4924 120.502 82.2462 120.752 81.9318C121.002 81.6136 121.127 81.2424 121.127 80.8182C121.127 80.4318 121.019 80.1174 120.803 79.875C120.587 79.6326 120.303 79.4356 119.951 79.2841C119.599 79.1326 119.218 79 118.809 78.8864L117.377 78.4773C116.468 78.2159 115.748 77.8428 115.218 77.358C114.688 76.8731 114.423 76.2386 114.423 75.4545C114.423 74.803 114.599 74.2348 114.951 73.75C115.307 73.2614 115.784 72.8826 116.383 72.6136C116.985 72.3409 117.657 72.2045 118.4 72.2045C119.15 72.2045 119.817 72.339 120.4 72.608C120.983 72.8731 121.445 73.2367 121.786 73.6989C122.131 74.161 122.313 74.6856 122.332 75.2727H120.968Z" fill="white"/>
<path d="M27 12.6875H62.4944L65.2247 18.125H29.7303L27 12.6875ZM30.6404 23.5625H66.1348L68.8652 29H33.3708L30.6404 23.5625ZM89.7978 52.5625C92.8193 52.5625 95.2584 50.1337 95.2584 47.125C95.2584 44.1163 92.8193 41.6875 89.7978 41.6875C86.7762 41.6875 84.3371 44.1163 84.3371 47.125C84.3371 50.1337 86.7762 52.5625 89.7978 52.5625ZM95.2584 19.9375H86.1573V29H102.394L95.2584 19.9375ZM53.3933 52.5625C56.4148 52.5625 58.8539 50.1337 58.8539 47.125C58.8539 44.1163 56.4148 41.6875 53.3933 41.6875C50.3717 41.6875 47.9326 44.1163 47.9326 47.125C47.9326 50.1337 50.3717 52.5625 53.3933 52.5625ZM97.0787 14.5L108 29V47.125H100.719C100.719 53.1425 95.8409 58 89.7978 58C83.7546 58 78.8764 53.1425 78.8764 47.125H64.3146C64.3146 53.1425 59.4 58 53.3933 58C47.3501 58 42.4719 53.1425 42.4719 47.125H35.191V34.4375H42.4719V39.875H45.2387C47.2409 37.6637 50.1533 36.25 53.3933 36.25C56.6333 36.25 59.5456 37.6637 61.5479 39.875H78.8764V7.25H35.191C35.191 3.22625 38.431 0 42.4719 0H86.1573V14.5H97.0787Z" fill="white"/>
</svg>
