<svg width="137" height="106" viewBox="0 0 137 106" fill="none" xmlns="http://www.w3.org/2000/svg">
<path d="M15.0107 88V76.3636H21.9879V77.6136H16.4197V81.5455H21.4652V82.7955H16.4197V88H15.0107ZM24.4013 88V76.3636H28.3331C29.2422 76.3636 29.9884 76.5189 30.5717 76.8295C31.1551 77.1364 31.5869 77.5587 31.8672 78.0966C32.1475 78.6345 32.2876 79.2462 32.2876 79.9318C32.2876 80.6174 32.1475 81.2254 31.8672 81.7557C31.5869 82.286 31.157 82.7027 30.5774 83.0057C29.9979 83.3049 29.2573 83.4545 28.3558 83.4545H25.174V82.1818H28.3104C28.9316 82.1818 29.4316 82.0909 29.8104 81.9091C30.1929 81.7273 30.4695 81.4697 30.6399 81.1364C30.8142 80.7992 30.9013 80.3977 30.9013 79.9318C30.9013 79.4659 30.8142 79.0587 30.6399 78.7102C30.4657 78.3617 30.1873 78.0928 29.8047 77.9034C29.4221 77.7102 28.9164 77.6136 28.2876 77.6136H25.8104V88H24.4013ZM29.8786 82.7727L32.7422 88H31.1058L28.2876 82.7727H29.8786ZM34.6357 88V76.3636H41.6584V77.6136H36.0447V81.5455H41.2947V82.7955H36.0447V86.75H41.7493V88H34.6357ZM43.5618 77.6136V76.3636H52.2891V77.6136H48.63V88H47.2209V77.6136H43.5618ZM54.4638 88V76.3636H61.4865V77.6136H55.8729V81.5455H61.1229V82.7955H55.8729V86.75H61.5774V88H54.4638ZM76.4808 80C76.3558 79.6174 76.1911 79.2746 75.9865 78.9716C75.7857 78.6648 75.5452 78.4034 75.2649 78.1875C74.9884 77.9716 74.674 77.8068 74.3217 77.6932C73.9695 77.5795 73.5831 77.5227 73.1626 77.5227C72.4732 77.5227 71.8464 77.7008 71.282 78.0568C70.7176 78.4129 70.2687 78.9375 69.9354 79.6307C69.602 80.3239 69.4354 81.1742 69.4354 82.1818C69.4354 83.1894 69.6039 84.0398 69.9411 84.733C70.2782 85.4261 70.7346 85.9508 71.3104 86.3068C71.8861 86.6629 72.5339 86.8409 73.2536 86.8409C73.9202 86.8409 74.5073 86.6989 75.0149 86.4148C75.5263 86.1269 75.924 85.7216 76.2081 85.1989C76.496 84.6723 76.6399 84.053 76.6399 83.3409L77.0717 83.4318H73.5717V82.1818H78.0036V83.4318C78.0036 84.3902 77.799 85.2235 77.3899 85.9318C76.9846 86.6402 76.424 87.1894 75.7081 87.5795C74.996 87.9659 74.1778 88.1591 73.2536 88.1591C72.2232 88.1591 71.3179 87.9167 70.5376 87.4318C69.7611 86.947 69.1551 86.2576 68.7195 85.3636C68.2876 84.4697 68.0717 83.4091 68.0717 82.1818C68.0717 81.2614 68.1948 80.4337 68.4411 79.6989C68.6911 78.9602 69.0433 78.3314 69.4979 77.8125C69.9524 77.2936 70.4903 76.8958 71.1115 76.6193C71.7327 76.3428 72.4164 76.2045 73.1626 76.2045C73.7763 76.2045 74.3482 76.2973 74.8786 76.483C75.4126 76.6648 75.888 76.9242 76.3047 77.2614C76.7251 77.5947 77.0755 77.9943 77.3558 78.4602C77.6361 78.9223 77.8293 79.4356 77.9354 80H76.4808ZM80.4169 88V76.3636H84.3487C85.2578 76.3636 86.004 76.5189 86.5874 76.8295C87.1707 77.1364 87.6025 77.5587 87.8828 78.0966C88.1631 78.6345 88.3033 79.2462 88.3033 79.9318C88.3033 80.6174 88.1631 81.2254 87.8828 81.7557C87.6025 82.286 87.1726 82.7027 86.593 83.0057C86.0135 83.3049 85.273 83.4545 84.3714 83.4545H81.1896V82.1818H84.326C84.9472 82.1818 85.4472 82.0909 85.826 81.9091C86.2086 81.7273 86.4851 81.4697 86.6555 81.1364C86.8298 80.7992 86.9169 80.3977 86.9169 79.9318C86.9169 79.4659 86.8298 79.0587 86.6555 78.7102C86.4813 78.3617 86.2029 78.0928 85.8203 77.9034C85.4377 77.7102 84.9321 77.6136 84.3033 77.6136H81.826V88H80.4169ZM85.8942 82.7727L88.7578 88H87.1214L84.3033 82.7727H85.8942ZM91.1286 88H89.6513L93.924 76.3636H95.3786L99.6513 88H98.174L94.6967 78.2045H94.6058L91.1286 88ZM91.674 83.4545H97.6286V84.7045H91.674V83.4545ZM94.0376 75.1818L95.424 72.5455H96.9922L95.2195 75.1818H94.0376ZM99.468 77.6136V76.3636H108.195V77.6136H104.536V88H103.127V77.6136H99.468ZM111.779 76.3636V88H110.37V76.3636H111.779ZM120.968 79.2727C120.9 78.697 120.623 78.25 120.138 77.9318C119.654 77.6136 119.059 77.4545 118.354 77.4545C117.839 77.4545 117.388 77.5379 117.002 77.7045C116.62 77.8712 116.32 78.1004 116.104 78.392C115.892 78.6837 115.786 79.0152 115.786 79.3864C115.786 79.697 115.86 79.964 116.008 80.1875C116.159 80.4072 116.353 80.5909 116.587 80.7386C116.822 80.8826 117.068 81.0019 117.326 81.0966C117.584 81.1875 117.82 81.2614 118.036 81.3182L119.218 81.6364C119.521 81.7159 119.858 81.8258 120.229 81.9659C120.604 82.1061 120.962 82.2973 121.303 82.5398C121.648 82.7784 121.932 83.0852 122.156 83.4602C122.379 83.8352 122.491 84.2955 122.491 84.8409C122.491 85.4697 122.326 86.0379 121.996 86.5455C121.671 87.053 121.193 87.4564 120.565 87.7557C119.94 88.0549 119.18 88.2045 118.286 88.2045C117.453 88.2045 116.731 88.0701 116.121 87.8011C115.515 87.5322 115.038 87.1572 114.69 86.6761C114.345 86.1951 114.15 85.6364 114.104 85H115.559C115.597 85.4394 115.745 85.803 116.002 86.0909C116.263 86.375 116.593 86.5871 116.991 86.7273C117.392 86.8636 117.824 86.9318 118.286 86.9318C118.824 86.9318 119.307 86.8447 119.735 86.6705C120.163 86.4924 120.502 86.2462 120.752 85.9318C121.002 85.6136 121.127 85.2424 121.127 84.8182C121.127 84.4318 121.019 84.1174 120.803 83.875C120.587 83.6326 120.303 83.4356 119.951 83.2841C119.599 83.1326 119.218 83 118.809 82.8864L117.377 82.4773C116.468 82.2159 115.748 81.8428 115.218 81.358C114.688 80.8731 114.423 80.2386 114.423 79.4545C114.423 78.803 114.599 78.2348 114.951 77.75C115.307 77.2614 115.784 76.8826 116.383 76.6136C116.985 76.3409 117.657 76.2045 118.4 76.2045C119.15 76.2045 119.817 76.339 120.4 76.608C120.983 76.8731 121.445 77.2367 121.786 77.6989C122.131 78.161 122.313 78.6856 122.332 79.2727H120.968Z" fill="white"/>
<path d="M28 12.6875H63.4944L66.2247 18.125H30.7303L28 12.6875ZM31.6404 23.5625H67.1348L69.8652 29H34.3708L31.6404 23.5625ZM90.7978 52.5625C93.8193 52.5625 96.2584 50.1337 96.2584 47.125C96.2584 44.1163 93.8193 41.6875 90.7978 41.6875C87.7762 41.6875 85.3371 44.1163 85.3371 47.125C85.3371 50.1337 87.7762 52.5625 90.7978 52.5625ZM96.2584 19.9375H87.1573V29H103.394L96.2584 19.9375ZM54.3933 52.5625C57.4148 52.5625 59.8539 50.1337 59.8539 47.125C59.8539 44.1163 57.4148 41.6875 54.3933 41.6875C51.3717 41.6875 48.9326 44.1163 48.9326 47.125C48.9326 50.1337 51.3717 52.5625 54.3933 52.5625ZM98.0787 14.5L109 29V47.125H101.719C101.719 53.1425 96.8409 58 90.7978 58C84.7546 58 79.8764 53.1425 79.8764 47.125H65.3146C65.3146 53.1425 60.4 58 54.3933 58C48.3501 58 43.4719 53.1425 43.4719 47.125H36.191V34.4375H43.4719V39.875H46.2387C48.2409 37.6637 51.1533 36.25 54.3933 36.25C57.6333 36.25 60.5456 37.6637 62.5479 39.875H79.8764V7.25H36.191C36.191 3.22625 39.431 0 43.4719 0H87.1573V14.5H98.0787Z" fill="white"/>
</svg>
