<svg width="20" height="24" viewBox="0 0 20 24" fill="none" xmlns="http://www.w3.org/2000/svg">
<path d="M9.6 0C6.2916 0 3.6 2.6916 3.6 6V9.6H2.4C1.76348 9.6 1.15303 9.85286 0.702944 10.3029C0.252856 10.753 0 11.3635 0 12V21.6C0 22.2365 0.252856 22.847 0.702944 23.2971C1.15303 23.7471 1.76348 24 2.4 24H16.8C17.4365 24 18.047 23.7471 18.4971 23.2971C18.9471 22.847 19.2 22.2365 19.2 21.6V12C19.2 11.3635 18.9471 10.753 18.4971 10.3029C18.047 9.85286 17.4365 9.6 16.8 9.6H15.6V6C15.6 2.6916 12.9084 0 9.6 0ZM6 6C6 4.0152 7.6152 2.4 9.6 2.4C11.5848 2.4 13.2 4.0152 13.2 6V9.6H6V6ZM10.8 18.8676V21.6H8.4V18.8676C7.98046 18.6273 7.64359 18.2656 7.43379 17.83C7.224 17.3945 7.15114 16.9055 7.22482 16.4277C7.2985 15.9499 7.51526 15.5057 7.84652 15.1535C8.17778 14.8014 8.60798 14.5579 9.0804 14.4552C9.4313 14.3776 9.79514 14.3798 10.1451 14.4615C10.495 14.5433 10.8222 14.7026 11.1024 14.9276C11.3826 15.1526 11.6087 15.4377 11.764 15.7618C11.9194 16.0858 12 16.4406 12 16.8C11.9993 17.2197 11.888 17.6318 11.6774 17.9948C11.4667 18.3578 11.1641 18.6588 10.8 18.8676Z" fill="#FDE577"/>
</svg>
