<svg width="152" height="25" viewBox="0 0 152 25" fill="none" xmlns="http://www.w3.org/2000/svg">
<path d="M12 1.67321L14.2186 8.50148L14.3309 8.84697H14.6942H21.8738L16.0654 13.0671L15.7715 13.2806L15.8837 13.6261L18.1024 20.4544L12.2939 16.2343L12 16.0207L11.7061 16.2343L5.89763 20.4544L8.11627 13.6261L8.22853 13.2806L7.93464 13.0671L2.12616 8.84697H9.30583H9.6691L9.78136 8.50148L12 1.67321Z" fill="#FBFF35" stroke="#262730"/>
<path d="M44 1.67321L46.2186 8.50148L46.3309 8.84697H46.6942H53.8738L48.0654 13.0671L47.7715 13.2806L47.8837 13.6261L50.1024 20.4544L44.2939 16.2343L44 16.0207L43.7061 16.2343L37.8976 20.4544L40.1163 13.6261L40.2285 13.2806L39.9346 13.0671L34.1262 8.84697H41.3058H41.6691L41.7814 8.50148L44 1.67321Z" fill="#FBFF35" stroke="#262730"/>
<path d="M76 1.67321L78.2186 8.50148L78.3309 8.84697H78.6942H85.8738L80.0654 13.0671L79.7715 13.2806L79.8837 13.6261L82.1024 20.4544L76.2939 16.2343L76 16.0207L75.7061 16.2343L69.8976 20.4544L72.1163 13.6261L72.2285 13.2806L71.9346 13.0671L66.1262 8.84697H73.3058H73.6691L73.7814 8.50148L76 1.67321Z" fill="#FBFF35" stroke="#262730"/>
<path d="M108 1.67321L110.219 8.50148L110.331 8.84697H110.694H117.874L112.065 13.0671L111.771 13.2806L111.884 13.6261L114.102 20.4544L108.294 16.2343L108 16.0207L107.706 16.2343L101.898 20.4544L104.116 13.6261L104.229 13.2806L103.935 13.0671L98.1262 8.84697H105.306H105.669L105.781 8.50148L108 1.67321Z" fill="#FBFF35" stroke="#262730"/>
<path d="M140 1.67321L142.219 8.50148L142.331 8.84697H142.694H149.874L144.065 13.0671L143.771 13.2806L143.884 13.6261L146.102 20.4544L140.294 16.2343L140 16.0207L139.706 16.2343L133.898 20.4544L136.116 13.6261L136.229 13.2806L135.935 13.0671L130.126 8.84697H137.306H137.669L137.781 8.50148L140 1.67321Z" fill="#FBFF35" stroke="#262730"/>
</svg>
